<?xml version="1.0" standalone="no"?>
<!DOCTYPE svg PUBLIC "-//W3C//DTD SVG 20010904//EN"
 "http://www.w3.org/TR/2001/REC-SVG-20010904/DTD/svg10.dtd">
<svg version="1.0" xmlns="http://www.w3.org/2000/svg"
 width="128.000000pt" height="128.000000pt" viewBox="0 0 128.000000 128.000000"
 preserveAspectRatio="xMidYMid meet">
<metadata>
Created by potrace 1.14, written by Peter Selinger 2001-2017
</metadata>
<g transform="translate(0.000000,128.000000) scale(0.100000,-0.100000)"
fill="#000000" stroke="none">
<path d="M0 640 l0 -640 640 0 640 0 0 640 0 640 -242 -1 -243 0 50 -19 c28
-10 67 -21 88 -25 69 -11 107 -81 44 -80 -33 1 -34 -7 -8 -147 39 -208 40
-216 17 -282 -10 -28 -15 -34 -19 -21 -16 40 -111 60 -265 57 -56 -2 -64 -4
-74 -27 -15 -34 -31 -32 -121 15 -86 45 -117 50 -117 20 0 -18 -7 -20 -87 -20
-112 0 -124 7 -99 55 30 54 40 60 80 41 37 -17 86 -13 121 11 17 12 13 13 -37
13 -111 0 -66 36 58 47 71 6 76 8 106 44 37 45 48 48 48 15 0 -13 6 -29 13
-35 18 -14 274 -23 283 -10 9 15 -33 56 -81 79 -46 22 -101 26 -140 8 -32 -14
-41 -5 -27 27 14 31 82 64 132 65 64 1 3 23 -79 30 -45 3 -76 10 -78 17 -6 17
121 73 164 73 40 0 67 -12 106 -48 15 -14 27 -21 27 -16 0 20 -50 57 -102 75
-29 10 -52 23 -50 29 1 7 -119 10 -373 10 l-375 0 0 -640z m455 434 c19 -8 45
-55 45 -84 l0 -20 -40 20 c-43 22 -93 28 -127 16 -20 -6 -22 -5 -15 14 16 43
89 72 137 54z m717 -327 c40 -31 62 -67 40 -67 -5 0 -26 14 -47 30 -43 34 -48
35 -69 15 -30 -31 -56 -8 -35 31 18 34 58 31 111 -9z m2 -99 c16 -35 17 -46 6
-78 -7 -21 -22 -50 -34 -65 -21 -26 -24 -26 -65 -15 -62 16 -71 10 -69 -50 1
-28 -3 -55 -10 -62 -34 -34 -20 91 20 176 10 22 18 48 18 58 0 22 8 22 35 3
13 -10 30 -13 53 -9 32 6 34 6 23 -15 -7 -12 -8 -21 -2 -21 24 0 22 42 -4 76
-14 19 -23 38 -20 44 10 17 31 0 49 -42z m-526 -44 c18 -25 30 -49 27 -54 -19
-30 -175 -14 -175 18 0 16 83 79 105 80 6 1 25 -19 43 -44z m-369 -246 c10
-30 9 -31 -4 -14 -8 11 -15 26 -15 33 0 22 8 14 19 -19z m404 3 c18 -6 18 -7
0 -23 -10 -10 -35 -24 -56 -33 -33 -13 -37 -14 -37 0 0 12 -12 14 -77 8 -44
-3 -74 -2 -70 3 8 8 177 51 207 52 8 0 23 -3 33 -7z m101 -134 c6 -22 14 -36
17 -32 4 3 10 1 14 -4 3 -6 -1 -14 -10 -17 -12 -5 -14 -9 -4 -14 7 -5 3 -8
-12 -8 -13 0 -84 -5 -156 -12 -111 -11 -137 -11 -158 0 l-26 14 53 22 c29 12
82 38 118 58 51 29 74 36 109 34 42 -3 45 -5 55 -41z"/>
<path d="M805 1100 c3 -5 11 -10 16 -10 6 0 7 5 4 10 -3 6 -11 10 -16 10 -6 0
-7 -4 -4 -10z"/>
<path d="M606 898 c21 -38 39 -48 83 -48 100 0 123 30 32 41 -28 4 -68 10 -87
14 -28 5 -34 3 -28 -7z"/>
</g>
</svg>
